<svg width="136" height="126" viewBox="0 0 136 126" fill="none" xmlns="http://www.w3.org/2000/svg" xmlns:xlink="http://www.w3.org/1999/xlink">
<path d="M68,0C30.43,0 0,28.906 0,64.594C0,93.176 19.465,117.318 46.495,125.877C49.895,126.442 51.17,124.504 51.17,122.808C51.17,121.274 51.085,116.188 51.085,110.778C34,113.765 29.58,106.822 28.22,103.188C27.455,101.331 24.14,95.598 21.25,94.064C18.87,92.853 15.47,89.866 21.165,89.785C26.52,89.704 30.345,94.468 31.62,96.406C37.74,106.176 47.515,103.43 51.425,101.735C52.02,97.536 53.805,94.71 55.76,93.095C40.63,91.481 24.82,85.909 24.82,61.202C24.82,54.178 27.455,48.364 31.79,43.843C31.11,42.228 28.73,35.607 32.47,26.726C32.47,26.726 38.165,25.03 51.17,33.346C56.61,31.893 62.39,31.166 68.17,31.166C73.95,31.166 79.73,31.893 85.17,33.346C98.175,24.949 103.87,26.726 103.87,26.726C107.61,35.607 105.23,42.228 104.55,43.843C108.885,48.364 111.52,54.097 111.52,61.202C111.52,85.99 95.625,91.481 80.495,93.095C82.96,95.114 85.085,98.99 85.085,105.045C85.085,113.685 85,120.628 85,122.808C85,124.504 86.275,126.523 89.675,125.877C103.174,121.548 114.904,113.306 123.214,102.313C131.524,91.319 135.996,78.127 136,64.594C136,28.906 105.57,0 68,0Z" clip-rule="evenodd" fill-rule="evenodd" fill="#FFFFFF"/>
</svg>
