<svg width="126" height="126" viewBox="0 0 126 126" fill="none" xmlns="http://www.w3.org/2000/svg" xmlns:xlink="http://www.w3.org/1999/xlink">
<path d="M36.54,0L89.46,0C109.62,0 126,16.38 126,36.54L126,89.46C126,99.151 122.15,108.445 115.298,115.298C108.445,122.15 99.151,126 89.46,126L36.54,126C16.38,126 0,109.62 0,89.46L0,36.54C0,26.849 3.85,17.555 10.702,10.702C17.555,3.85 26.849,0 36.54,0ZM35.28,12.6C29.265,12.6 23.496,14.989 19.243,19.243C14.989,23.496 12.6,29.265 12.6,35.28L12.6,90.72C12.6,103.257 22.743,113.4 35.28,113.4L90.72,113.4C96.735,113.4 102.504,111.011 106.757,106.757C111.011,102.504 113.4,96.735 113.4,90.72L113.4,35.28C113.4,22.743 103.257,12.6 90.72,12.6L35.28,12.6ZM96.075,22.05C98.164,22.05 100.167,22.88 101.643,24.357C103.12,25.833 103.95,27.836 103.95,29.925C103.95,32.014 103.12,34.017 101.643,35.493C100.167,36.97 98.164,37.8 96.075,37.8C93.986,37.8 91.983,36.97 90.507,35.493C89.03,34.017 88.2,32.014 88.2,29.925C88.2,27.836 89.03,25.833 90.507,24.357C91.983,22.88 93.986,22.05 96.075,22.05ZM63,31.5C71.354,31.5 79.366,34.819 85.274,40.726C91.181,46.634 94.5,54.646 94.5,63C94.5,71.354 91.181,79.366 85.274,85.274C79.366,91.181 71.354,94.5 63,94.5C54.646,94.5 46.634,91.181 40.726,85.274C34.819,79.366 31.5,71.354 31.5,63C31.5,54.646 34.819,46.634 40.726,40.726C46.634,34.819 54.646,31.5 63,31.5ZM63,44.1C57.987,44.1 53.18,46.091 49.636,49.636C46.091,53.18 44.1,57.987 44.1,63C44.1,68.013 46.091,72.82 49.636,76.364C53.18,79.909 57.987,81.9 63,81.9C68.013,81.9 72.82,79.909 76.364,76.364C79.909,72.82 81.9,68.013 81.9,63C81.9,57.987 79.909,53.18 76.364,49.636C72.82,46.091 68.013,44.1 63,44.1Z" fill="#FFFFFF"/>
</svg>
