<svg width="124" height="124" viewBox="0 0 124 124" fill="none" xmlns="http://www.w3.org/2000/svg" xmlns:xlink="http://www.w3.org/1999/xlink">
<path d="M123.667,62C123.667,27.96 96.04,0.333 62,0.333C27.96,0.333 0.333,27.96 0.333,62C0.333,91.847 21.547,116.698 49.667,122.433L49.667,80.5L37.333,80.5L37.333,62L49.667,62L49.667,46.583C49.667,34.682 59.348,25 71.25,25L86.667,25L86.667,43.5L74.333,43.5C70.942,43.5 68.167,46.275 68.167,49.667L68.167,62L86.667,62L86.667,80.5L68.167,80.5L68.167,123.358C99.308,120.275 123.667,94.005 123.667,62Z" fill="#FFFFFF"/>
</svg>
